<?xml version="1.0" encoding="UTF-8" standalone="no"?>
<svg
   xmlns:dc="http://purl.org/dc/elements/1.1/"
   xmlns:cc="http://creativecommons.org/ns#"
   xmlns:rdf="http://www.w3.org/1999/02/22-rdf-syntax-ns#"
   xmlns:svg="http://www.w3.org/2000/svg"
   xmlns="http://www.w3.org/2000/svg"
   id="svg8"
   version="1.1"
   viewBox="0 0 46.26096 46.260959"
   height="46.26096mm"
   width="46.26096mm">
  <defs
     id="defs2" />
  <metadata
     id="metadata5">
    <rdf:RDF>
      <cc:Work
         rdf:about="">
        <dc:format>image/svg+xml</dc:format>
        <dc:type
           rdf:resource="http://purl.org/dc/dcmitype/StillImage" />
        <dc:title></dc:title>
      </cc:Work>
    </rdf:RDF>
  </metadata>
  <g
     style="display:none"
     transform="translate(-41.20083,-35.714365)"
     id="layer3">
    <rect
       y="31.09375"
       x="35.718761"
       height="55.5625"
       width="55.562492"
       id="rect864"
       style="fill:#ffffff;fill-opacity:1;stroke:none;stroke-width:2.73811173;stroke-linecap:round;stroke-linejoin:round;stroke-miterlimit:4;stroke-dasharray:none;stroke-dashoffset:0;stroke-opacity:1" />
  </g>
  <g
     transform="translate(-41.20083,-35.714365)"
     id="layer1">
    <circle
       r="18.520834"
       cy="56.229164"
       cx="60.854164"
       id="path821"
       style="fill:none;fill-opacity:1;stroke:#000000;stroke-width:2.2650001;stroke-linecap:round;stroke-miterlimit:4;stroke-dasharray:none;stroke-dashoffset:0;stroke-opacity:1" />
    <path
       id="path825"
       d="m 75.670833,69.987501 9.435134,9.631527"
       style="fill:none;stroke:#000000;stroke-width:4.66499996;stroke-linecap:round;stroke-linejoin:round;stroke-miterlimit:4;stroke-dasharray:none;stroke-opacity:1" />
    <text
       id="text829"
       y="52.260414"
       x="50.270832"
       style="font-style:normal;font-weight:normal;font-size:4.93888855px;line-height:1.25;font-family:sans-serif;letter-spacing:0px;word-spacing:0px;fill:#000000;fill-opacity:1;stroke:none;stroke-width:0.26458332"
       xml:space="preserve"><tspan
         style="stroke-width:0.26458332"
         y="56.766312"
         x="50.270832"
         id="tspan827" /></text>
    <path
       id="path841"
       d="M 44.223214,63.505209 78.052082,49.614584"
       style="fill:none;stroke:#000000;stroke-width:0.26458332px;stroke-linecap:butt;stroke-linejoin:miter;stroke-opacity:1" />
    <path
       transform="scale(0.26458333)"
       id="path850"
       d="m 168.56004,235.37739 c -1.41192,-3.66123 -3.04303,-10.35324 -3.59783,-14.76091 -0.69272,-5.50344 -0.26751,-16.17333 0.8505,-21.34151 3.80436,-17.58639 14.26024,-32.66846 29.26276,-42.21003 16.25219,-10.33635 37.14047,-12.83796 55.67545,-6.66776 17.25011,5.74247 31.94283,19.07653 39.15024,35.52994 l 1.09152,2.49179 -1.84779,0.77556 c -2.75213,1.15513 -117.79066,48.38039 -118.70312,48.72963 -0.72246,0.27652 -0.86996,0.0769 -1.88173,-2.54671 z"
       style="fill:#6699ff;fill-opacity:1;stroke:#000000;stroke-width:3.0573678;stroke-linecap:round;stroke-linejoin:round;stroke-miterlimit:4;stroke-dasharray:none;stroke-dashoffset:0;stroke-opacity:1" />
    <path
       transform="scale(0.26458333)"
       id="path852"
       d="m 220.32096,277.37589 c -18.60955,-3.02866 -34.3473,-13.0217 -44.67672,-28.36848 -1.37475,-2.04251 -3.12167,-4.951 -3.88205,-6.46332 l -1.38251,-2.74967 10.06585,-4.13285 c 5.53622,-2.27307 32.64621,-13.40442 60.24443,-24.73633 27.59821,-11.3319 50.35208,-20.67299 50.56414,-20.75797 0.22147,-0.0887 0.79656,1.18527 1.35116,2.99323 8.06447,26.28959 -1.15834,54.97907 -22.98673,71.50498 -7.81935,5.9199 -16.54632,9.90561 -26.37534,12.04591 -3.58504,0.78066 -5.24693,0.92354 -12.01752,1.03321 -5.55433,0.09 -8.75034,-0.0181 -10.90471,-0.36871 z"
       style="fill:#99cc33;fill-opacity:1;stroke:#000000;stroke-width:3.0573678;stroke-linecap:round;stroke-linejoin:round;stroke-miterlimit:4;stroke-dasharray:none;stroke-dashoffset:0;stroke-opacity:1" />
  </g>
  <g
     transform="translate(-41.20083,-35.714365)"
     style="display:inline"
     id="layer2">
    <text
       id="text835"
       y="53.237411"
       x="47.291691"
       style="font-style:normal;font-weight:normal;font-size:8.22171402px;line-height:1.25;font-family:sans-serif;letter-spacing:0px;word-spacing:0px;fill:#000000;fill-opacity:1;stroke:none;stroke-width:0.44044897"
       xml:space="preserve"><tspan
         style="font-style:normal;font-variant:normal;font-weight:bold;font-stretch:normal;font-family:sans-serif;-inkscape-font-specification:'sans-serif Bold';stroke-width:0.44044897"
         y="53.237411"
         x="47.291691"
         id="tspan833">i++</tspan></text>
    <text
       xml:space="preserve"
       style="font-style:normal;font-weight:normal;font-size:8.22171402px;line-height:1.25;font-family:sans-serif;letter-spacing:0px;word-spacing:0px;fill:#000000;fill-opacity:1;stroke:none;stroke-width:0.44044897"
       x="57.246857"
       y="64.975685"
       id="text839"><tspan
         id="tspan837"
         x="57.246857"
         y="64.975685"
         style="font-style:normal;font-variant:normal;font-weight:bold;font-stretch:normal;font-family:sans-serif;-inkscape-font-specification:'sans-serif Bold';stroke-width:0.44044897">++i</tspan></text>
  </g>
</svg>
